With: Steve Austin, Eric Roberts and Gil Bellows

Jim Rhodes is een ruige agent van de grenspolitie. Wanneer zijn tienerdochter ontvoerd wordt, wordt hij gedwongen een groep genadeloze moordenaars de wildernis in te leiden om hun verloren deel van een mislukte deal terug te halen. Om zijn dochter te redden zal Jim nu zijn survival-technieken moeten gebruiken om de ontvoerders te slim af te zijn.

Steve Austin stars as U.S. Border Patrol agent Jim Rhodes, a tough divorce mourning the loss of his...

------------------ Dutch Friends ------------------
You can find my Friends at: http://www.Film-Test.nl 
------ They got my dutch subs ----- and more ------

General:

Complete name                    : Hunt to Kill\Hunt to Kill.avi
Format                           : AVI
Format/Info                      : Audio Video Interleave
File size                        : 1.47 GiB
Duration                         : 1h 33mn
Overall bit rate                 : 2 256 Kbps

Video:

Format                           : MPEG-4 Visual
Format profile                   : Simple@L3
Format settings, BVOP            : No
Format settings, QPel            : No
Format settings, GMC             : No warppoints
Format settings, Matrix          : Default (H.263)
Codec ID                         : XVID
Codec ID/Hint                    : XviD
Duration                         : 1h 33mn
Bit rate                         : 1 797 Kbps
Width                            : 704 pixels
Height                           : 396 pixels
Display aspect ratio             : 16:9
Frame rate                       : 25.000 fps
Color space                      : YUV
Chroma subsampling               : 4:2:0
Bit depth                        : 8 bits
Scan type                        : Progressive
Bits/(Pixel*Frame)               : 0.258
Stream size                      : 1.17 GiB (80%)
Writing library                  : XviD 1.1.2 (UTC 2006-11-01)

Audio:

Format                           : AC-3
Format/Info                      : Audio Coding 3
Mode extension                   : CM (complete main)
Codec ID                         : 2000
Duration                         : 1h 33mn
Bit rate mode                    : Constant
Bit rate                         : 448 Kbps
Channel(s)                       : 6 channels
Channel positions                : Front: L C R, Side: L R, LFE
Sampling rate                    : 48.0 KHz
Bit depth                        : 16 bits
Stream size                      : 299 MiB (20%)
Alignment                        : Aligned on interleaves
Interleave, duration             : 32 ms (0.80 video frame)

